<svg width="0" height="0" class="hidden">
  <symbol viewBox="0 0 256 256" xmlns="http://www.w3.org/2000/svg" preserveAspectRatio="xMidYMid" id="codepen">
    <path d="M255.807 87.087c-.059-.31-.11-.62-.193-.924-.052-.183-.114-.355-.172-.535a11.007 11.007 0 0 0-.283-.8c-.076-.182-.162-.358-.245-.534a9.74 9.74 0 0 0-.376-.73c-.096-.176-.207-.342-.313-.51a11.038 11.038 0 0 0-.842-1.142 11.166 11.166 0 0 0-.544-.596c-.145-.145-.29-.29-.442-.431a9.07 9.07 0 0 0-.624-.52c-.165-.128-.327-.26-.5-.377-.061-.044-.117-.096-.182-.138l-116.992-78a10.989 10.989 0 0 0-12.201 0l-117 77.998c-.065.041-.116.093-.182.138-.172.12-.334.248-.5.376a15.52 15.52 0 0 0-.624.517 8.604 8.604 0 0 0-.438.43c-.193.194-.372.39-.548.597a6.88 6.88 0 0 0-.376.483c-.165.217-.317.438-.465.669-.107.169-.214.334-.314.51a9.593 9.593 0 0 0-.372.724c-.083.176-.172.355-.245.534-.107.262-.2.531-.286.8-.058.18-.12.355-.169.517-.08.303-.138.61-.193.924-.03.159-.069.314-.09.476-.062.475-.096.951-.096 1.437v78.016c0 .482.034.965.103 1.437.025.173.07.31.104.476.055.31.103.62.207.931.048.172.103.345.172.534.086.276.172.552.276.804.072.172.172.344.241.517.114.241.242.482.38.734.096.172.206.345.31.503.148.242.31.449.482.655.121.173.242.31.38.476.175.207.344.414.551.597.141.137.276.31.448.413.2.173.414.345.62.524.166.138.346.242.483.376.066.034.104.103.173.134l116.968 78.04a10.815 10.815 0 0 0 6.102 1.851 11.06 11.06 0 0 0 6.102-1.85l117-78c.065-.04.12-.089.182-.134.172-.12.334-.248.5-.375.214-.17.424-.345.624-.524.151-.135.296-.283.441-.428a9.876 9.876 0 0 0 .92-1.072 14.55 14.55 0 0 0 .78-1.172c.138-.242.258-.486.375-.734.083-.176.17-.352.245-.531.107-.266.197-.535.283-.804.058-.179.12-.355.172-.534.08-.303.135-.614.193-.924.028-.159.07-.314.086-.476.063-.475.097-.951.097-1.437V89c0-.486-.038-.962-.097-1.438-.027-.169-.079-.306-.113-.475h.017zm-127.81 66.935l-38.905-26.021 38.905-26.025 38.907 26.025-38.907 26.021zm-10.998-71.155l-47.692 31.9L30.81 89.013 117 31.555v51.312zm-67.477 45.13l-27.517 18.406v-36.811l27.517 18.405zm19.785 13.245L117 173.138v51.312l-86.19-57.465 38.498-25.75v.007zm69.69 31.89l47.692-31.896 38.501 25.749-86.193 57.458v-51.312zm67.477-45.128l27.521-18.409v36.815l-27.52-18.413v.007zm-19.785-13.238L138.997 82.87V31.555l86.193 57.459-38.5 25.752z"
      ></path>
  </symbol>
  <symbol viewBox="0 0 256 361" xmlns="http://www.w3.org/2000/svg" preserveAspectRatio="xMidYMid" id="css-3">
    <path d="M127.844 360.088L23.662 331.166.445 70.766h255.11l-23.241 260.36-104.47 28.962z" fill="#264DE4"></path>
    <path d="M212.417 314.547l19.86-222.49H128V337.95l84.417-23.403z" fill="#2965F1"></path>
    <path d="M53.669 188.636l2.862 31.937H128v-31.937H53.669zm-5.752-64.641l2.903 31.937H128v-31.937H47.917zM128 271.58l-.14.037-35.568-9.604-2.274-25.471h-32.06l4.474 50.146 65.421 18.16.147-.04V271.58z" fill="#EBEBEB"></path>
    <path d="M60.484 0h38.68v16.176H76.66v16.176h22.506v16.175H60.484V0zm46.417 0h38.681v14.066h-22.505v2.813h22.505v32.352h-38.68V34.46h22.505v-2.813H106.9V0zm46.418 0H192v14.066h-22.505v2.813H192v32.352h-38.681V34.46h22.505v-2.813H153.32V0z"></path>
    <path d="M202.127 188.636l5.765-64.641H127.89v31.937h45.002l-2.906 32.704H127.89v31.937h39.327l-3.708 41.42-35.62 9.614v33.226l65.473-18.145.48-5.396 7.506-84.08.779-8.576z" fill="#FFF"></path>
  </symbol>
  <symbol viewBox="0 0 256 250" xmlns="http://www.w3.org/2000/svg" preserveAspectRatio="xMidYMid" id="github">
    <path d="M128.001 0C57.317 0 0 57.307 0 128.001c0 56.554 36.676 104.535 87.535 121.46 6.397 1.185 8.746-2.777 8.746-6.158 0-3.052-.12-13.135-.174-23.83-35.61 7.742-43.124-15.103-43.124-15.103-5.823-14.795-14.213-18.73-14.213-18.73-11.613-7.944.876-7.78.876-7.78 12.853.902 19.621 13.19 19.621 13.19 11.417 19.568 29.945 13.911 37.249 10.64 1.149-8.272 4.466-13.92 8.127-17.116-28.431-3.236-58.318-14.212-58.318-63.258 0-13.975 5-25.394 13.188-34.358-1.329-3.224-5.71-16.242 1.24-33.874 0 0 10.749-3.44 35.21 13.121 10.21-2.836 21.16-4.258 32.038-4.307 10.878.049 21.837 1.47 32.066 4.307 24.431-16.56 35.165-13.12 35.165-13.12 6.967 17.63 2.584 30.65 1.255 33.873 8.207 8.964 13.173 20.383 13.173 34.358 0 49.163-29.944 59.988-58.447 63.157 4.591 3.972 8.682 11.762 8.682 23.704 0 17.126-.148 30.91-.148 35.126 0 3.407 2.304 7.398 8.792 6.14C219.37 232.5 256 184.537 256 128.002 256 57.307 198.691 0 128.001 0zm-80.06 182.34c-.282.636-1.283.827-2.194.39-.929-.417-1.45-1.284-1.15-1.922.276-.655 1.279-.838 2.205-.399.93.418 1.46 1.293 1.139 1.931zm6.296 5.618c-.61.566-1.804.303-2.614-.591-.837-.892-.994-2.086-.375-2.66.63-.566 1.787-.301 2.626.591.838.903 1 2.088.363 2.66zm4.32 7.188c-.785.545-2.067.034-2.86-1.104-.784-1.138-.784-2.503.017-3.05.795-.547 2.058-.055 2.861 1.075.782 1.157.782 2.522-.019 3.08zm7.304 8.325c-.701.774-2.196.566-3.29-.49-1.119-1.032-1.43-2.496-.726-3.27.71-.776 2.213-.558 3.315.49 1.11 1.03 1.45 2.505.701 3.27zm9.442 2.81c-.31 1.003-1.75 1.459-3.199 1.033-1.448-.439-2.395-1.613-2.103-2.626.301-1.01 1.747-1.484 3.207-1.028 1.446.436 2.396 1.602 2.095 2.622zm10.744 1.193c.036 1.055-1.193 1.93-2.715 1.95-1.53.034-2.769-.82-2.786-1.86 0-1.065 1.202-1.932 2.733-1.958 1.522-.03 2.768.818 2.768 1.868zm10.555-.405c.182 1.03-.875 2.088-2.387 2.37-1.485.271-2.861-.365-3.05-1.386-.184-1.056.893-2.114 2.376-2.387 1.514-.263 2.868.356 3.061 1.403z"
      ></path>
  </symbol>
  <symbol viewBox="0 0 256 361" xmlns="http://www.w3.org/2000/svg" preserveAspectRatio="xMidYMid" id="html-5">
    <path d="M255.555 70.766l-23.241 260.36-104.47 28.962-104.182-28.922L.445 70.766h255.11z" fill="#E44D26"></path>
    <path d="M128 337.95l84.417-23.403 19.86-222.49H128V337.95z" fill="#F16529"></path>
    <path d="M82.82 155.932H128v-31.937H47.917l.764 8.568 7.85 88.01H128v-31.937H85.739l-2.919-32.704zm7.198 80.61h-32.06l4.474 50.146 65.421 18.16.147-.04V271.58l-.14.037-35.568-9.604-2.274-25.471z" fill="#EBEBEB"></path>
    <path d="M24.18 0h16.23v16.035h14.847V0h16.231v48.558h-16.23v-16.26H40.411v16.26h-16.23V0zm68.65 16.103H78.544V0h44.814v16.103h-14.295v32.455h-16.23V16.103h-.001zM130.47 0h16.923l10.41 17.062L168.203 0h16.93v48.558h-16.164V24.49l-11.166 17.265h-.28L146.35 24.49v24.068h-15.88V0zm62.74 0h16.235v32.508h22.824v16.05h-39.06V0z"></path>
    <path d="M127.89 220.573h39.327l-3.708 41.42-35.62 9.614v33.226l65.473-18.145.48-5.396 7.506-84.08.779-8.576H127.89v31.937zm0-64.719v.078h77.143l.64-7.178 1.456-16.191.763-8.568H127.89v31.86z" fill="#FFF"></path>
  </symbol>
  <symbol viewBox="0 0 256 256" xmlns="http://www.w3.org/2000/svg" preserveAspectRatio="xMidYMid" id="instagram">
    <path d="M128 23.064c34.177 0 38.225.13 51.722.745 12.48.57 19.258 2.655 23.769 4.408 5.974 2.322 10.238 5.096 14.717 9.575 4.48 4.479 7.253 8.743 9.575 14.717 1.753 4.511 3.838 11.289 4.408 23.768.615 13.498.745 17.546.745 51.723 0 34.178-.13 38.226-.745 51.723-.57 12.48-2.655 19.257-4.408 23.768-2.322 5.974-5.096 10.239-9.575 14.718-4.479 4.479-8.743 7.253-14.717 9.574-4.511 1.753-11.289 3.839-23.769 4.408-13.495.616-17.543.746-51.722.746-34.18 0-38.228-.13-51.723-.746-12.48-.57-19.257-2.655-23.768-4.408-5.974-2.321-10.239-5.095-14.718-9.574-4.479-4.48-7.253-8.744-9.574-14.718-1.753-4.51-3.839-11.288-4.408-23.768-.616-13.497-.746-17.545-.746-51.723 0-34.177.13-38.225.746-51.722.57-12.48 2.655-19.258 4.408-23.769 2.321-5.974 5.095-10.238 9.574-14.717 4.48-4.48 8.744-7.253 14.718-9.575 4.51-1.753 11.288-3.838 23.768-4.408 13.497-.615 17.545-.745 51.723-.745M128 0C93.237 0 88.878.147 75.226.77c-13.625.622-22.93 2.786-31.071 5.95-8.418 3.271-15.556 7.648-22.672 14.764C14.367 28.6 9.991 35.738 6.72 44.155 3.555 52.297 1.392 61.602.77 75.226.147 88.878 0 93.237 0 128c0 34.763.147 39.122.77 52.774.622 13.625 2.785 22.93 5.95 31.071 3.27 8.417 7.647 15.556 14.763 22.672 7.116 7.116 14.254 11.492 22.672 14.763 8.142 3.165 17.446 5.328 31.07 5.95 13.653.623 18.012.77 52.775.77s39.122-.147 52.774-.77c13.624-.622 22.929-2.785 31.07-5.95 8.418-3.27 15.556-7.647 22.672-14.763 7.116-7.116 11.493-14.254 14.764-22.672 3.164-8.142 5.328-17.446 5.95-31.07.623-13.653.77-18.012.77-52.775s-.147-39.122-.77-52.774c-.622-13.624-2.786-22.929-5.95-31.07-3.271-8.418-7.648-15.556-14.764-22.672C227.4 14.368 220.262 9.99 211.845 6.72c-8.142-3.164-17.447-5.328-31.071-5.95C167.122.147 162.763 0 128 0zm0 62.27c-36.302 0-65.73 29.43-65.73 65.73 0 36.302 29.428 65.73 65.73 65.73 36.301 0 65.73-29.428 65.73-65.73 0-36.301-29.429-65.73-65.73-65.73zm0 108.397c-23.564 0-42.667-19.103-42.667-42.667S104.436 85.333 128 85.333s42.667 19.103 42.667 42.667-19.103 42.667-42.667 42.667zm83.686-110.994c0 8.484-6.876 15.36-15.36 15.36-8.483 0-15.36-6.876-15.36-15.36 0-8.483 6.877-15.36 15.36-15.36 8.484 0 15.36 6.877 15.36 15.36z"
      ></path>
  </symbol>
  <symbol viewBox="0 0 256 256" xmlns="http://www.w3.org/2000/svg" preserveAspectRatio="xMidYMid" id="javascript">
    <path d="M0 0h256v256H0V0z" fill="#F7DF1E"></path>
    <path d="M67.312 213.932l19.59-11.856c3.78 6.701 7.218 12.371 15.465 12.371 7.905 0 12.89-3.092 12.89-15.12v-81.798h24.057v82.138c0 24.917-14.606 36.259-35.916 36.259-19.245 0-30.416-9.967-36.087-21.996m85.07-2.576l19.588-11.341c5.157 8.421 11.859 14.607 23.715 14.607 9.969 0 16.325-4.984 16.325-11.858 0-8.248-6.53-11.17-17.528-15.98l-6.013-2.58c-17.357-7.387-28.87-16.667-28.87-36.257 0-18.044 13.747-31.792 35.228-31.792 15.294 0 26.292 5.328 34.196 19.247l-18.732 12.03c-4.125-7.389-8.591-10.31-15.465-10.31-7.046 0-11.514 4.468-11.514 10.31 0 7.217 4.468 10.14 14.778 14.608l6.014 2.577c20.45 8.765 31.963 17.7 31.963 37.804 0 21.654-17.012 33.51-39.867 33.51-22.339 0-36.774-10.654-43.819-24.574"></path>
  </symbol>
  <symbol xmlns="http://www.w3.org/2000/svg" viewBox="0 0 22.258 22.258" id="linkedin">
    <path d="M5.366 2.973c0 1.376-1.035 2.479-2.699 2.479h-.031C1.034 5.453 0 4.348 0 2.973 0 1.564 1.067.491 2.698.491 4.331.49 5.336 1.564 5.366 2.973zM.28 21.766h4.772V7.413H.28v14.353zM16.764 7.077c-2.531 0-3.664 1.39-4.301 2.37v.046h-.031a.232.232 0 0 0 .031-.046V7.414H7.692c.062 1.345 0 14.353 0 14.353h4.771v-8.016c0-.432.029-.855.157-1.164.346-.854 1.132-1.747 2.446-1.747 1.729 0 2.42 1.319 2.42 3.247v7.68h4.771v-8.229c.001-4.412-2.355-6.461-5.493-6.461z"></path>
  </symbol>
  <symbol xmlns="http://www.w3.org/2000/svg" viewBox="0 0 246.06 155.7" id="logoLab">
    <path d="M16.43 0H0v155.7h137.12v-18.31H16.43V0zM221 70.92a41.12 41.12 0 0 0 12.61-29.67A41.25 41.25 0 0 0 192.33 0h-37v155.7h46a44.65 44.65 0 0 0 44.65-44.65A44.64 44.64 0 0 0 221 70.92zM171.8 16h20.53a25.25 25.25 0 0 1 2.21 50.4H171.8zm29.61 123.7H171.8V82.4h29.61a28.65 28.65 0 1 1 0 57.3z"></path>
    <path d="M86 0a51.08 51.08 0 0 0-51 51.08v69.72h16V82.51h70.16v38.29h16V51.08A51.08 51.08 0 0 0 86 0zM51 66.58v-15.5a35.08 35.08 0 0 1 70.16 0v15.5z"></path>
  </symbol>
  <symbol viewBox="0 0 256 135" xmlns="http://www.w3.org/2000/svg" preserveAspectRatio="xMidYMid" id="php">
    <defs>
      <radialGradient id="a" cx=".837" cy="-125.811" r="363.057" gradientTransform="matrix(.463 0 0 .463 76.464 81.918)" gradientUnits="userSpaceOnUse">
        <stop offset="0" stop-color="#fff"></stop>
        <stop offset=".5" stop-color="#dbdbdb"></stop>
        <stop offset="1" stop-color="#dbdbdb"></stop>
      </radialGradient>
    </defs>
    <ellipse fill="url(#a)" cx="128" cy="67.3" rx="128" ry="67.3"></ellipse>
    <ellipse fill="#dbdbdb" cx="128" cy="67.3" rx="123" ry="62.3"></ellipse>
    <path d="M152.9 87.5l6.1-31.4c1.4-7.1.2-12.4-3.4-15.7-3.5-3.2-9.5-4.8-18.3-4.8h-10.6l3-15.6c.1-.6 0-1.2-.4-1.7s-.9-.7-1.5-.7h-14.6c-1 0-1.8.7-2 1.6l-6.5 33.3c-.6-3.8-2-7-4.4-9.6-4.3-4.9-11-7.4-20.1-7.4H52.1c-1 0-1.8.7-2 1.6L37 104.7c-.1.6 0 1.2.4 1.7s.9.7 1.5.7h14.7c1 0 1.8-.7 2-1.6l3.2-16.3h10.9c5.7 0 10.6-.6 14.3-1.8 3.9-1.3 7.4-3.4 10.5-6.3 2.5-2.3 4.6-4.9 6.2-7.7l-2.6 13.5c-.1.6 0 1.2.4 1.7s.9.7 1.5.7h14.6c1 0 1.8-.7 2-1.6l7.2-37h10c4.3 0 5.5.8 5.9 1.2.3.3.9 1.5.2 5.2L134.1 87c-.1.6 0 1.2.4 1.7s.9.7 1.5.7h15c.9-.3 1.7-1 1.9-1.9zm-67.6-26c-.9 4.7-2.6 8.1-5.1 10-2.5 1.9-6.6 2.9-12 2.9h-6.5l4.7-24.2h8.4c6.2 0 8.7 1.3 9.7 2.4 1.3 1.6 1.6 4.7.8 8.9zm130-18.6c-4.3-4.9-11-7.4-20.1-7.4h-28.3c-1 0-1.8.7-2 1.6l-13.1 67.5c-.1.6 0 1.2.4 1.7s.9.7 1.5.7h14.7c1 0 1.8-.7 2-1.6l3.2-16.3h10.9c5.7 0 10.6-.6 14.3-1.8 3.9-1.3 7.4-3.4 10.5-6.3 2.6-2.4 4.8-5.1 6.4-8 1.6-2.9 2.8-6.1 3.5-9.6 1.7-8.7.4-15.5-3.9-20.5zM200 61.5c-.9 4.7-2.6 8.1-5.1 10-2.5 1.9-6.6 2.9-12 2.9h-6.5l4.7-24.2h8.4c6.2 0 8.7 1.3 9.7 2.4 1.4 1.6 1.7 4.7.8 8.9z"
      fill="#FFF"></path>
    <path d="M74.8 48.2c5.6 0 9.3 1 11.2 3.1 1.9 2.1 2.3 5.6 1.3 10.6-1 5.2-3 9-5.9 11.2-2.9 2.2-7.3 3.3-13.2 3.3h-8.9l5.5-28.2h10zM39 105h14.7l3.5-17.9h12.6c5.6 0 10.1-.6 13.7-1.8 3.6-1.2 6.8-3.1 9.8-5.9 2.5-2.3 4.5-4.8 6-7.5s2.6-5.7 3.2-9c1.6-8 .4-14.2-3.5-18.7s-10.1-6.7-18.6-6.7H52.1L39 105zm74.3-85.4h14.6l-3.5 17.9h13c8.2 0 13.8 1.4 16.9 4.3 3.1 2.9 4 7.5 2.8 13.9L151 87.1h-14.8l5.8-29.9c.7-3.4.4-5.7-.7-6.9-1.1-1.2-3.6-1.9-7.3-1.9h-11.7l-7.5 38.7h-14.6l13.1-67.5zm76.2 28.6c5.6 0 9.3 1 11.2 3.1 1.9 2.1 2.3 5.6 1.3 10.6-1 5.2-3 9-5.9 11.2-2.9 2.2-7.3 3.3-13.2 3.3H174l5.5-28.2h10zM153.7 105h14.7l3.5-17.9h12.6c5.6 0 10.1-.6 13.7-1.8 3.6-1.2 6.8-3.1 9.8-5.9 2.5-2.3 4.5-4.8 6-7.5s2.6-5.7 3.2-9c1.6-8 .4-14.2-3.5-18.7s-10.1-6.7-18.6-6.7h-28.3L153.7 105z"
      fill="#fff"></path>
  </symbol>
  <symbol id="react" viewBox="0 0 256 228" version="1.1" xmlns="http://www.w3.org/2000/svg" xmlns:xlink="http://www.w3.org/1999/xlink" preserveAspectRatio="xMidYMid">
      <path d="M210.483381,73.8236374 C207.827698,72.9095503 205.075867,72.0446761 202.24247,71.2267368 C202.708172,69.3261098 203.135596,67.4500894 203.515631,65.6059664 C209.753843,35.3248922 205.675082,10.9302478 191.747328,2.89849283 C178.392359,-4.80289661 156.551327,3.22703567 134.492936,22.4237776 C132.371761,24.2697233 130.244662,26.2241201 128.118477,28.2723861 C126.701777,26.917204 125.287358,25.6075897 123.876584,24.3549348 C100.758745,3.82852863 77.5866802,-4.82157937 63.6725966,3.23341515 C50.3303869,10.9571328 46.3792156,33.8904224 51.9945178,62.5880206 C52.5367729,65.3599011 53.1706189,68.1905639 53.8873982,71.068617 C50.6078941,71.9995641 47.4418534,72.9920277 44.4125156,74.0478303 C17.3093297,83.497195 0,98.3066828 0,113.667995 C0,129.533287 18.5815786,145.446423 46.8116526,155.095373 C49.0394553,155.856809 51.3511025,156.576778 53.7333796,157.260293 C52.9600965,160.37302 52.2875179,163.423318 51.7229345,166.398431 C46.3687351,194.597975 50.5500231,216.989464 63.8566899,224.664425 C77.6012619,232.590464 100.66852,224.443422 123.130185,204.809231 C124.905501,203.257196 126.687196,201.611293 128.472081,199.886102 C130.785552,202.113904 133.095375,204.222319 135.392897,206.199955 C157.14963,224.922338 178.637969,232.482469 191.932332,224.786092 C205.663234,216.837268 210.125675,192.78347 204.332202,163.5181 C203.88974,161.283006 203.374826,158.99961 202.796573,156.675661 C204.416503,156.196743 206.006814,155.702335 207.557482,155.188332 C236.905331,145.46465 256,129.745175 256,113.667995 C256,98.2510906 238.132466,83.3418093 210.483381,73.8236374 L210.483381,73.8236374 Z M204.118035,144.807565 C202.718197,145.270987 201.281904,145.718918 199.818271,146.153177 C196.578411,135.896354 192.205739,124.989735 186.854729,113.72131 C191.961041,102.721277 196.164656,91.9540963 199.313837,81.7638014 C201.93261,82.5215915 204.474374,83.3208483 206.923636,84.1643056 C230.613348,92.3195488 245.063763,104.377206 245.063763,113.667995 C245.063763,123.564379 229.457753,136.411268 204.118035,144.807565 L204.118035,144.807565 Z M193.603754,165.642007 C196.165567,178.582766 196.531475,190.282717 194.834536,199.429057 C193.309843,207.64764 190.243595,213.12715 186.452366,215.321689 C178.384612,219.991462 161.131788,213.921395 142.525146,197.909832 C140.392124,196.074366 138.243609,194.114502 136.088259,192.040261 C143.301619,184.151133 150.510878,174.979732 157.54698,164.793993 C169.922699,163.695814 181.614905,161.900447 192.218042,159.449363 C192.740247,161.555956 193.204126,163.621993 193.603754,165.642007 L193.603754,165.642007 Z M87.2761866,214.514686 C79.3938934,217.298414 73.1160375,217.378157 69.3211631,215.189998 C61.2461189,210.532528 57.8891498,192.554265 62.4682434,168.438039 C62.9927272,165.676183 63.6170041,162.839142 64.3365173,159.939216 C74.8234575,162.258154 86.4299951,163.926841 98.8353334,164.932519 C105.918826,174.899534 113.336329,184.06091 120.811247,192.08264 C119.178102,193.65928 117.551336,195.16028 115.933685,196.574699 C106.001303,205.256705 96.0479605,211.41654 87.2761866,214.514686 L87.2761866,214.514686 Z M50.3486141,144.746959 C37.8658105,140.48046 27.5570398,134.935332 20.4908634,128.884403 C14.1414664,123.446815 10.9357817,118.048415 10.9357817,113.667995 C10.9357817,104.34622 24.8334611,92.4562517 48.0123604,84.3748281 C50.8247961,83.3942121 53.7689223,82.4701001 56.8242337,81.6020363 C60.0276398,92.0224477 64.229889,102.917218 69.3011135,113.93411 C64.1642716,125.11459 59.9023288,136.182975 56.6674809,146.725506 C54.489347,146.099407 52.3791089,145.440499 50.3486141,144.746959 L50.3486141,144.746959 Z M62.7270678,60.4878073 C57.9160346,35.9004118 61.1112387,17.3525532 69.1516515,12.6982729 C77.7160924,7.74005624 96.6544653,14.8094222 116.614922,32.5329619 C117.890816,33.6657739 119.171723,34.8514442 120.456275,36.0781256 C113.018267,44.0647686 105.66866,53.1573386 98.6480514,63.0655695 C86.6081646,64.1815215 75.0831931,65.9741531 64.4868907,68.3746571 C63.8206914,65.6948233 63.2305903,63.0619242 62.7270678,60.4878073 L62.7270678,60.4878073 Z M173.153901,87.7550367 C170.620796,83.3796304 168.020249,79.1076627 165.369124,74.9523483 C173.537126,75.9849113 181.362914,77.3555864 188.712066,79.0329319 C186.505679,86.1041206 183.755673,93.4974728 180.518546,101.076741 C178.196419,96.6680702 175.740322,92.2229454 173.153901,87.7550367 L173.153901,87.7550367 Z M128.122121,43.8938899 C133.166461,49.3588189 138.218091,55.4603279 143.186789,62.0803968 C138.179814,61.8439007 133.110868,61.720868 128.000001,61.720868 C122.937434,61.720868 117.905854,61.8411667 112.929865,62.0735617 C117.903575,55.515009 122.99895,49.4217021 128.122121,43.8938899 L128.122121,43.8938899 Z M82.8018984,87.830679 C80.2715265,92.2183886 77.8609975,96.6393627 75.5753239,101.068539 C72.3906004,93.5156998 69.6661103,86.0886276 67.440586,78.9171899 C74.7446255,77.2826781 82.5335049,75.9461789 90.6495601,74.9332099 C87.9610684,79.1268011 85.3391054,83.4302106 82.8018984,87.8297677 L82.8018984,87.830679 L82.8018984,87.830679 Z M90.8833221,153.182899 C82.4979621,152.247395 74.5919739,150.979704 67.289757,149.390303 C69.5508242,142.09082 72.3354636,134.505173 75.5876271,126.789657 C77.8792246,131.215644 80.2993228,135.638441 82.8451877,140.03572 L82.8456433,140.03572 C85.4388987,144.515476 88.1255676,148.90364 90.8833221,153.182899 L90.8833221,153.182899 Z M128.424691,184.213105 C123.24137,178.620587 118.071264,172.434323 113.021912,165.780078 C117.923624,165.972373 122.921029,166.0708 128.000001,166.0708 C133.217953,166.0708 138.376211,165.953235 143.45336,165.727219 C138.468257,172.501308 133.434855,178.697141 128.424691,184.213105 L128.424691,184.213105 Z M180.622896,126.396409 C184.044571,134.195313 186.929004,141.741317 189.219234,148.9164 C181.796719,150.609693 173.782736,151.973534 165.339049,152.986959 C167.996555,148.775595 170.619884,144.430263 173.197646,139.960532 C175.805484,135.438399 178.28163,130.90943 180.622896,126.396409 L180.622896,126.396409 Z M163.724586,134.496971 C159.722835,141.435557 155.614455,148.059271 151.443648,154.311611 C143.847063,154.854776 135.998946,155.134562 128.000001,155.134562 C120.033408,155.134562 112.284171,154.887129 104.822013,154.402745 C100.48306,148.068386 96.285368,141.425078 92.3091341,134.556664 L92.3100455,134.556664 C88.3442923,127.706935 84.6943232,120.799333 81.3870228,113.930466 C84.6934118,107.045648 88.3338117,100.130301 92.276781,93.292874 L92.2758697,93.294241 C96.2293193,86.4385872 100.390102,79.8276317 104.688954,73.5329157 C112.302398,72.9573964 120.109505,72.6571055 127.999545,72.6571055 L128.000001,72.6571055 C135.925583,72.6571055 143.742714,72.9596746 151.353879,73.5402067 C155.587114,79.7888993 159.719645,86.3784378 163.688588,93.2350031 C167.702644,100.168578 171.389978,107.037901 174.724618,113.77508 C171.400003,120.627999 167.720871,127.566587 163.724586,134.496971 L163.724586,134.496971 Z M186.284677,12.3729198 C194.857321,17.3165548 198.191049,37.2542268 192.804953,63.3986692 C192.461372,65.0669011 192.074504,66.7661189 191.654369,68.4881206 C181.03346,66.0374921 169.500286,64.2138746 157.425315,63.0810626 C150.391035,53.0639249 143.101577,43.9572289 135.784778,36.073113 C137.751934,34.1806885 139.716356,32.3762092 141.672575,30.673346 C160.572216,14.2257007 178.236518,7.73185406 186.284677,12.3729198 L186.284677,12.3729198 Z M128.000001,90.8080696 C140.624975,90.8080696 150.859926,101.042565 150.859926,113.667995 C150.859926,126.292969 140.624975,136.527922 128.000001,136.527922 C115.375026,136.527922 105.140075,126.292969 105.140075,113.667995 C105.140075,101.042565 115.375026,90.8080696 128.000001,90.8080696 L128.000001,90.8080696 Z" fill="#00D8FF"></path>
  </symbol>
  <symbol viewBox="0 0 256 192" xmlns="http://www.w3.org/2000/svg" preserveAspectRatio="xMidYMid" id="sass">
    <path d="M220.281 110.514c-8.906.046-16.647 2.191-23.128 5.362-2.379-4.71-4.757-8.906-5.176-11.984-.467-3.59-1.026-5.782-.467-10.072.56-4.29 3.078-10.399 3.031-10.865-.046-.466-.56-2.658-5.689-2.704-5.129-.047-9.559.979-10.072 2.331-.513 1.352-1.492 4.43-2.145 7.6-.886 4.664-10.258 21.31-15.62 30.03-1.726-3.403-3.218-6.388-3.545-8.766-.466-3.59-1.026-5.782-.466-10.072.56-4.29 3.078-10.398 3.031-10.865-.047-.466-.56-2.658-5.689-2.704-5.13-.047-9.56.979-10.072 2.331-.513 1.353-1.073 4.523-2.145 7.601-1.073 3.078-13.523 30.87-16.787 38.05a214.726 214.726 0 0 1-4.15 8.627s-.047.14-.187.373a117.773 117.773 0 0 1-1.398 2.658v.046c-.7 1.26-1.446 2.425-1.819 2.425-.28 0-.793-3.357.093-7.927 1.865-9.652 6.295-24.667 6.249-25.18 0-.28.839-2.891-2.891-4.244-3.638-1.352-4.943.886-5.27.886-.326 0-.56.793-.56.793s4.058-16.88-7.74-16.88c-7.367 0-17.533 8.067-22.569 15.341a6269.96 6269.96 0 0 0-17.16 9.373c-2.75 1.539-5.595 3.078-8.253 4.523-.187-.186-.373-.42-.56-.606-14.269-15.248-40.661-26.02-39.542-46.49.42-7.461 2.984-27.046 50.687-50.827 39.262-19.352 70.505-13.99 75.914-2.099 7.74 16.974-16.74 48.496-57.309 53.065-15.481 1.726-23.595-4.243-25.646-6.481-2.145-2.332-2.472-2.472-3.265-2.005-1.305.7-.466 2.798 0 4.01 1.213 3.17 6.202 8.766 14.642 11.518 7.461 2.424 25.6 3.777 47.563-4.71 24.574-9.513 43.786-35.952 38.144-58.101-5.643-22.476-42.947-29.89-78.246-17.347C61.086 13.99 38.33 25.74 21.963 41.035 2.518 59.22-.56 75.028.699 81.65c4.524 23.501 36.932 38.796 49.895 50.127-.653.373-1.26.7-1.772.98-6.482 3.217-31.196 16.133-37.351 29.796-6.994 15.481 1.12 26.58 6.482 28.071 16.647 4.617 33.76-3.683 42.946-17.393 9.186-13.709 8.067-31.522 3.824-39.682-.047-.093-.093-.187-.187-.28 1.679-.979 3.404-2.005 5.083-2.984a247.933 247.933 0 0 1 9.373-5.27c-1.586 4.337-2.752 9.513-3.311 16.974-.7 8.767 2.89 20.144 7.6 24.62 2.099 1.96 4.57 2.006 6.156 2.006 5.502 0 7.974-4.57 10.725-9.979 3.357-6.621 6.388-14.315 6.388-14.315s-3.777 20.797 6.482 20.797c3.73 0 7.507-4.85 9.186-7.321v.046s.093-.14.28-.466c.373-.606.606-.98.606-.98v-.092c1.492-2.612 4.85-8.534 9.839-18.373 6.435-12.683 12.637-28.537 12.637-28.537s.56 3.87 2.471 10.305c1.12 3.777 3.45 7.927 5.316 11.937-1.492 2.099-2.425 3.264-2.425 3.264l.047.047c-1.213 1.585-2.518 3.31-3.964 4.99-5.083 6.061-11.144 13.01-11.984 15.014-.98 2.378-.746 4.104 1.12 5.503 1.352 1.026 3.776 1.165 6.248 1.026 4.57-.327 7.787-1.446 9.372-2.145 2.472-.886 5.363-2.239 8.067-4.244 4.99-3.684 8.02-8.953 7.741-15.9-.14-3.824-1.399-7.648-2.938-11.239.467-.652.886-1.305 1.353-1.958 7.88-11.518 13.989-24.155 13.989-24.155s.56 3.87 2.471 10.306c.933 3.264 2.845 6.808 4.523 10.258-7.414 6.016-11.984 13.01-13.616 17.58-2.937 8.487-.653 12.31 3.684 13.196 1.958.42 4.756-.513 6.808-1.399 2.611-.839 5.689-2.284 8.627-4.43 4.99-3.683 9.792-8.813 9.512-15.76-.14-3.171-.979-6.296-2.145-9.327 6.295-2.61 14.409-4.056 24.76-2.844 22.197 2.611 26.58 16.46 25.74 22.29-.839 5.828-5.502 8.999-7.04 9.978-1.54.98-2.052 1.306-1.912 2.005.186 1.026.932.98 2.238.793 1.819-.326 11.658-4.71 12.077-15.435.7-13.709-12.357-28.677-35.439-28.537zM49.055 168.242c-7.368 8.02-17.626 11.051-22.056 8.487-4.756-2.752-2.891-14.596 6.155-23.082 5.502-5.176 12.59-9.98 17.3-12.917 1.072-.653 2.658-1.585 4.57-2.751.326-.187.513-.28.513-.28l1.119-.7c3.31 12.124.14 22.803-7.601 31.243zm53.625-36.465c-2.565 6.249-7.927 22.243-11.191 21.357-2.798-.746-4.524-12.87-.56-24.854 2.005-6.016 6.248-13.197 8.72-15.994 4.01-4.477 8.44-5.97 9.512-4.15 1.353 2.378-4.896 19.724-6.481 23.641zm44.252 21.17c-1.073.56-2.098.933-2.565.653-.326-.187.467-.933.467-.933s5.549-5.968 7.74-8.673c1.26-1.585 2.751-3.45 4.337-5.549v.606c0 7.135-6.902 11.938-9.98 13.896zm34.133-7.787c-.793-.56-.653-2.425 2.005-8.254 1.026-2.285 3.45-6.108 7.601-9.792.466 1.492.793 2.938.746 4.29-.047 9-6.481 12.357-10.352 13.756z"
      fill="#CD6799"></path>
  </symbol>
  <symbol xmlns="http://www.w3.org/2000/svg" viewBox="0 0 521.78 450.53" id="wordpress">
    <path d="M238.11 211.24L215 279.9l-50.47-150h15.13a7 7 0 1 0 0-14h-50.48A172.3 172.3 0 0 1 350.7 87.56c-12.3 2.76-22.08 14-24.89 28.37a43.89 43.89 0 0 0-.83 8.52 44.91 44.91 0 0 0 .35 5.48 41.23 41.23 0 0 0 6.14 17.29 36.67 36.67 0 0 0 3.53 4.58c6.6 9.41 19.71 32.24 13.51 58l-23.6 70.11-44.71-132.75-5.8-17.23h15.13a7 7 0 0 0 0-14h-76.08a7 7 0 0 0 0 14h14.22L257 212.65l-54.93 155-84.25-237.72h-.1a172.27 172.27 0 1 0 278.21.64l-84 237.07-44.29-125"
      stroke-linecap="round" stroke-linejoin="round"></path>
  </symbol>
  <symbol id="figma" viewBox="0 0 256 384" xmlns="http://www.w3.org/2000/svg" preserveAspectRatio="xMidYMid">
    <g>
        <path d="M64,384 C99.328,384 128,355.328 128,320 L128,256 L64,256 C28.672,256 0,284.672 0,320 C0,355.328 28.672,384 64,384 Z" fill="#0ACF83"></path>
        <path d="M0,192 C0,156.672 28.672,128 64,128 L128,128 L128,256 L64,256 C28.672,256 0,227.328 0,192 Z" fill="#A259FF"></path>
        <path d="M0,64 C0,28.672 28.672,0 64,0 L128,0 L128,128 L64,128 C28.672,128 0,99.328 0,64 Z" fill="#F24E1E"></path>
        <path d="M128,0 L192,0 C227.328,0 256,28.672 256,64 C256,99.328 227.328,128 192,128 L128,128 L128,0 Z" fill="#FF7262"></path>
        <path d="M256,192 C256,227.328 227.328,256 192,256 C156.672,256 128,227.328 128,192 C128,156.672 156.672,128 192,128 C227.328,128 256,156.672 256,192 Z" fill="#1ABCFE"></path>
    </g>
</symbol>
  <symbol xmlns="http://www.w3.org/2000/svg" viewBox="0 0 307.01 355.871" id="gsap" enable-background="new 0 0 307.01 355.871"
   xml:space="preserve">
<g>
  <path fill="#010101" d="M48.173,155.568c-10.389,4.887-37.886,26.886-43.182,33.404c-5.5,6.518-7.129-3.666-1.426-20.572
    c4.48-13.647,15.888-32.183,35.034-48.07c11.202-9.166,35.849-22.405,50.921-30.146c3.056-1.63,42.571-18.332,77.809-26.683
    c3.056-0.815-3.666,5.092-4.685,8.351c-5.296,15.48-111.01,81.882-111.01,81.882L48.173,155.568z"/>
  <path fill="#010101" d="M197.067,342.348c1.833,10.999,0.204,11.814-11.202,13.24c-11.407,1.426-19.758-2.852-22.813-5.703
    c-3.056-2.853-3.666-9.166-0.611-14.869c1.834-3.667,3.667-4.889,4.686-9.37c1.018-4.277,1.833-5.296,2.647-6.925
    c0.814-1.427,1.019-2.853,1.222-12.833c0.204-9.98,0-28.72,1.019-36.663c1.019-8.147,36.257,3.666,36.257,3.666
    s-8.352,20.776-10.592,25.868c-2.241,5.093-2.037,14.869-2.037,16.906s-0.814,6.11-1.426,6.314
    c-0.611,0.203,2.037,5.499,0.814,8.555C194.216,333.386,196.864,340.719,197.067,342.348z"/>
  <path fill="#010101" d="M210.511,30.911c-1.223-7.74,0-23.018,1.629-25.461c5.093-6.926,31.979-7.74,37.683,0.407
    c2.444,3.666,2.24,12.221,1.833,17.721c-0.407,5.499-1.833,17.313-2.037,21.184c-0.203,2.852-29.738,7.332-36.256-0.408
    C211.529,42.318,210.511,30.911,210.511,30.911z"/>
  <path fill="#010101" d="M270.395,322.59c12.425,8.963,21.998,10.592,28.312,13.851c6.314,3.26,4.685,9.574-5.907,11.407
    c-8.555,1.629-21.998-1.63-30.96-1.63c-8.962,0-28.924,1.019-34.22-2.647c-6.11-4.277-3.463-12.222-3.463-12.222
    c1.63-4.48,5.703-14.462,4.481-22.609s-2.852-12.628-5.907-20.165c-3.055-7.536-5.295-26.071-2.443-27.09s2.036,0,5.703,0.814
    c3.666,0.814,7.74,2.037,15.684,2.037s16.702-1.223,19.758-1.833c3.055-0.611,5.499-1.223,4.48,5.092
    c-1.018,6.314-4.073,18.128-4.277,27.294c-0.203,9.166-0.203,19.758,0.408,21.591C262.654,318.313,267.136,320.35,270.395,322.59z"
    />
  <g>
    <g>
      <path fill="#8AC640" d="M226.806,51.28c-22.405,19.351-65.791,24.646-130.155,49.496c-16.499,6.314-60.495,25.257-71.087,45.015
        c35.645-20.572,48.885,7.74,51.736,36.867c2.647,27.294,16.295,41.553,51.329,40.737c36.053-0.814,47.052,20.165,57.032,44.812
        c19.35-94.308,50.311-112.639,70.271-128.73C298.3,105.053,246.156,44.354,226.806,51.28z"/>
      <path fill="#8AC640" d="M226.806,51.28C173.033,70.019,119.87,74.704,57.339,113.201c-14.869,9.166-46.237,29.941-52.348,69.661
        c22.812-25.258,75.567-57.032,140.136-77.197c32.59-10.185,56.422-16.906,85.345-28.109
        C228.436,64.519,228.436,59.427,226.806,51.28z"/>
    </g>
    <path fill="#010101" d="M295.448,162.9c0,0-3.87,13.24-11.61,17.518c0,0-5.703,2.037-17.109-4.277
      c-3.259-1.833-5.703-8.147-5.5-10.185c0.204-4.889,3.259-7.129,3.259-7.129s3.26-5.5,7.129-5.296
      c3.871,0.203,10.389,0.814,12.426-1.019C285.875,150.475,295.856,156.178,295.448,162.9z"/>
    <path fill="#010101" d="M212.344,34.781c0,0-0.814,10.389-2.24,16.906c-0.204,1.223-6.314,1.833-10.796,3.667
      c8.555,24.442,60.088,24.238,66.81,12.221c-3.259-2.24-9.777-5.703-12.832-6.925c-3.056-1.223-2.852-1.019-3.056-6.722
      c-0.203-5.704-0.611-16.295-1.019-19.147C248.804,31.929,217.232,31.929,212.344,34.781z"/>
    <path fill="#F0EFEF" d="M214.381,34.781c0,0,0,5.907-0.611,11.61c-0.203,2.648-0.407,4.277-0.814,6.314
      c-0.204,1.223,6.925,6.11,8.962,16.906c9.777,21.794,32.387,10.999,41.756,0.611c-3.259-2.241-8.555-5.296-14.665-7.74
      c-3.056-1.223-1.63-3.87-1.833-9.573c-0.204-5.703-1.019-14.055-1.426-17.11C245.341,32.744,219.27,31.929,214.381,34.781z"/>
    <path fill="#010101" d="M212.344,34.781c0,0-0.204,3.667-0.814,7.944c2.647,2.647,6.11,6.314,8.759,8.555
      c1.833,1.63,6.313,1.426,10.388,1.426c3.666,0,6.925,0.407,8.351-0.407c3.26-1.63,7.944-5.703,10.592-8.759
      c-0.203-3.666-0.407-7.129-0.61-8.759C248.804,31.929,217.232,31.929,212.344,34.781z"/>
    <path fill="#010101" d="M230.88,50.261c-2.445,0-5.297-0.203-7.537-0.611c-1.019-0.203-2.037-0.814-2.852-1.222
      c-1.426-1.019-2.852-2.24-4.48-3.463c-3.26-2.444-3.463-3.87-3.463-4.48c1.426-12.833-0.408-23.628-0.408-23.628
      s-1.426-5.5,6.314-6.926s12.425-1.629,12.425-1.629s4.889,0,12.425,1.629c7.74,1.426,6.314,6.926,6.314,6.926
      s-1.833,10.795-0.407,23.628c0,0.61-0.203,2.036-3.463,4.48c-2.852,2.037-5.092,4.277-7.332,4.685
      C236.175,50.058,233.323,50.261,230.88,50.261z"/>
    <path fill="#010101" d="M230.88,3.006c-13.443,0-16.092,3.666-19.962,7.74c-0.814,1.018-0.204,7.129,1.223,20.165h1.833
      c0,0-1.223-3.667-1.019-7.944s1.019-4.073,0.407-5.092c-0.814-1.223-2.444-3.26,1.223-5.296c3.666-2.037,9.369,1.629,16.295,1.833
      c6.925-0.204,12.832-3.87,16.498-1.833c3.666,2.036,2.037,4.073,1.223,5.296c-0.815,1.222,0.203,0.814,0.407,5.092
      c0.203,4.277-1.019,7.944-1.019,7.944h1.833c1.222-13.036,2.037-18.739,1.426-19.758C247.785,6.672,244.323,3.209,230.88,3.006z"
      />
    <path fill="#010101" d="M295.448,163.511c0,0-3.87,12.425-11.406,16.702c-1.63-0.814-1.426-2.036-2.852-3.87
      c-0.408-0.61-1.834-1.019-2.444-1.629c-0.611-0.611-0.407-1.63-1.426-2.444c-0.815-0.815-1.426-0.204-2.241-0.815
      c-0.814-0.814-1.019-1.833-1.629-2.443c-0.408-0.408-2.037-0.611-2.444-1.019c-1.019-1.019-9.98-2.852-9.573-4.889
      c0.814-3.056,2.444-5.296,2.444-5.296s3.87-5.703,7.739-5.5c3.87,0.204,7.537,1.019,9.574-0.814
      C283.431,149.456,296.06,156.993,295.448,163.511z"/>
    <path fill="#010101" d="M268.969,73.482c0,0,12.832-3.056,21.591,5.296c8.759,8.555,8.147,19.146,5.5,25.664
      c2.24,2.648,6.314,9.98,3.259,18.739c13.443,11.406,7.536,28.924-4.481,40.534c0,0-2.852-10.592-14.258-11.203
      c0.407-4.073-10.592-7.333-5.5-17.925c-7.74-1.833-7.536-7.129-8.758-13.646C265.303,114.422,268.969,73.482,268.969,73.482z"/>
    <path fill="#F0EFEF" d="M264.284,79.185c0,0,14.869-7.536,23.628,1.019c8.758,8.555,6.313,17.924,3.666,24.442
      c2.24,2.647,7.536,10.185,4.277,19.146c-0.611,2.037-5.092,2.037-8.352,7.333c8.147-4.686,13.24-3.463,15.073,2.443
      c2.852,9.166-3.463,20.165-8.962,26.276c0-0.204-0.204-0.408-0.204-0.611c-0.814,3.056-1.833,8.962-7.943,15.48
      c-3.056,3.259-5.5,2.852-8.963,2.037c-4.073-1.019-5.499-2.853-11.202-5.907c-3.259-1.833-1.426-4.074-1.426-5.907
      c0-0.407,0.407-1.019,1.019-1.833c0.407-1.019,1.629-2.647,3.462-4.481c0,0,2.648-3.666,6.519-3.463
      c3.87,0.204,7.943-0.61,8.962-1.629l0,0c0-7.129-8.147-7.333-5.296-19.554c0.204-0.611,1.223-1.63,4.481-2.037
      c-4.889-1.019-7.129-1.223-10.592-4.481c-2.444-2.24-4.277-5.092-4.889-8.758C266.321,112.386,264.284,79.185,264.284,79.185z"/>
    <path fill="#010101" d="M221.306,66.353c-1.222-1.63-7.536-9.777-19.554-13.036c-3.463-1.019-5.703,1.833-9.165,3.87
      c-1.019-0.611-5.5-2.648-7.944-1.223s-4.073,2.852-6.518,3.87c-1.223-0.611-4.481-0.611-7.129,0.407
      c-2.648,0.815-6.722,2.648-10.592,7.944c-2.444,8.759,43.181,2.24,43.181,2.24L221.306,66.353z"/>
    <path fill="#8AC640" d="M221.714,66.353c-6.519-2.241-5.5-9.777-19.962-10.999c-2.852-0.204-4.685,2.036-6.722,3.462
      c1.019,1.019,2.037,2.648,2.648,4.277c-1.833-2.036-5.092-4.685-8.352-5.296c-3.055-0.61-5.092,1.63-8.351,3.26
      c0.61,0.61,1.222,1.629,2.036,2.852c-2.852-1.833-4.888-2.444-8.758-1.019c-2.648,0.814-7.74,3.055-11.61,8.555
      c-2.444,8.759,41.145-1.019,41.145-1.019L221.714,66.353z"/>
    <path fill="#010101" d="M260.007,69.612c0,0,0-2.241-0.204-4.277c0-0.407-1.629-1.426-1.629-1.833l-0.407-0.408
      c0,0,3.259-1.833,5.703-0.814c2.647,0.814,4.073,4.277,4.073,4.277c4.685-1.629,5.092,0.204,7.333,2.648
      c4.889-1.019,5.499,0.814,8.555,5.296c0,0-3.666-0.611-10.795,0.61C265.71,76.129,260.007,69.408,260.007,69.612z"/>
    <path fill="#8AC640" d="M259.192,68.593c0,0,1.222-1.019,0.814-1.223c2.24-1.222,5.296-2.647,6.722,1.223
      c4.685-1.63,5.296,0.611,7.536,3.056c5.703-2.648,6.11,0.61,6.518,2.036c-1.833,0-4.48,0.204-8.147,0.611
      C265.71,75.315,258.988,68.389,259.192,68.593z"/>
    <path fill="#010101" d="M189.939,63.501c0,0,11.61,4.073,21.387,3.462c9.777-0.814,26.479-1.629,35.441,3.667
      c0,0,9.166-3.26,17.721-1.019c8.556,2.24,24.239,16.906,19.555,32.386c-0.408,1.019-3.056,2.648-6.111,3.667
      c0,0,1.63,6.925-1.222,12.628c-2.852,5.5-9.166,16.092-9.37,30.757l0,0c-0.203,2.444-0.61,7.536-1.018,9.98
      c-15.888-0.61-40.33-6.518-64.365-6.11c0.203-2.647,0.407-4.277,0.611-6.925h0.61c-1.222-6.722-1.629-10.185-2.852-15.277
      c-7.74-4.888-15.888-10.591-22.812-21.387C170.792,98.534,189.939,63.501,189.939,63.501z"/>
    <path fill="#010101" d="M268.562,173.492c0,0,12.629,45.219-2.24,64.162c0,0,2.24,8.758-2.852,18.128
      c-0.815,4.073-1.834,7.74-2.444,11.813c-2.648,16.906-7.13,24.035-8.352,51.125l-12.222-0.203c0,0-1.426-19.554-5.703-29.942
      c-2.443-5.906-12.018-13.851-11.609-21.794c0.407-6.111,1.629-11.203,12.018-19.351c0.814-11.813-11-23.017-9.166-67.013
      L268.562,173.492z"/>
    <path fill="#F0EFEF" d="M264.896,171.658c3.259,20.776,10.795,51.533-2.852,66.605c0.61,2.852,1.018,6.926,0.203,11.61
      c-0.407,2.444-1.222,5.092-2.24,7.943c-2.037,4.889-2.852,12.018-3.463,16.295c-2.648,16.906-2.648,17.722-3.87,44.812
      l-12.222-0.204c0,0-1.426-19.554-5.703-29.941c-2.443-5.907-7.536-10.999-7.943-18.943c-0.407-6.11,3.87-18.331,14.055-17.924
      c-0.611-24.646-12.018-19.758-15.073-71.087L264.896,171.658z"/>
    <path fill="#F0EFEF" d="M189.939,63.501c0,0,4.481,1.426,9.369,1.833c4.889,0.407,10.185,0,14.869-0.204
      c9.777-0.814,23.628-1.833,32.794,3.463c0,0,5.092-1.63,10.592-1.223c2.444,0.204,4.889,2.241,7.74,3.056
      c8.962,2.24,17.517,17.109,13.646,30.553c-0.407,1.019-3.259,0-6.518,1.019c0.61,2.852,1.019,9.37-2.241,16.295
      c-3.462,6.926-7.943,15.888-7.129,32.998c-21.387-1.019-30.96-2.444-52.144-3.463c-1.833-7.537-3.056-15.073-3.259-18.943
      c2.852-1.426,4.48-2.647,6.722-5.092c-6.11,1.019-8.555,0.611-12.222-1.426c-3.666-2.037-10.184-8.555-13.443-12.832
      c-0.407-0.408-2.647,6.313-7.739,6.518c-1.834-2.648,5.906-10.185,4.48-13.036C180.365,92.628,189.939,63.501,189.939,63.501z"/>
    <path fill="#010101" d="M266.524,154.752c0,0,0.407,7.333,0.407,9.166c0,2.037,1.63,8.147,1.833,10.999
      c-2.24,3.87-12.017,12.629-29.738,15.888c-17.517,3.666-40.737-23.831-40.737-23.831c0.611-2.648,2.648-10.389,4.074-14.462
      c0.204-0.407,0.611-1.426,0.611-1.833C204.808,148.031,266.524,154.752,266.524,154.752z"/>
    <path fill="#F0EFEF" d="M262.044,155.364c0,5.092,0.814,8.759,1.426,12.018c1.018,5.907,2.647,9.777,2.647,13.647
      c0,11.813-15.48,9.776-28.517,10.184c-17.517,3.667-32.386-23.831-32.386-23.831c1.222-4.685,2.037-9.98,3.87-14.462l0,0
      c0.203-2.444,0.611-5.499,0.814-6.925c24.85,0,42.367,1.426,52.552,2.443C262.858,150.679,262.451,154.549,262.044,155.364
      L262.044,155.364z"/>
    <path fill="#010101" d="M242.489,181.639c0,0-10.795-24.035-43.182-16.905c-7.739,21.794-18.128,46.848-11.406,73.938
      c-6.722,9.166-14.462,14.259-14.462,31.164c0,16.906,0.815,19.758,0.815,19.758l23.831,1.223c0,0,7.74-9.98,10.795-20.776
      c0.815-3.056,1.63-8.555,1.019-14.869c0.814-1.222,4.277-4.073,4.685-9.573c0,0,11.61-6.11,18.332-20.979
      C239.231,211.174,237.601,199.564,242.489,181.639z"/>
    <path fill="#F0EFEF" d="M242.489,181.639c-0.61-2.24-8.758-24.238-38.904-17.721c-17.72,47.256-11.202,66.81-8.555,75.364
      c-12.018,15.276-17.517,18.535-15.072,49.496h15.888c7.332-11.61,8.962-15.888,9.369-31.164c0-0.611-2.24,1.222-3.87,3.259
      c1.223-6.314,4.685-7.536,7.333-11.406c1.222-1.63,2.24-4.074,2.24-7.333c14.258-9.573,19.554-21.591,22.609-34.016
      C235.972,199.564,238.823,185.509,242.489,181.639z"/>
    <path fill="#010101" d="M192.179,148.846c0,0,5.5,0.203,10.389,1.833c4.685,1.629,4.685,2.647,6.518,4.685s6.314,5.092,5.5,8.147
      c-0.408,1.63-1.426,2.037-2.852,3.463c-0.611,0.611-5.093,5.499-6.111,6.11c-0.611,0.407-1.426,1.019-2.037,1.426
      c-0.61,0.407-2.443,1.63-3.055,2.037c-2.037,1.019-3.463,1.63-5.703,1.426c0,0-5.092-0.204-8.352-3.666
      c0,0-0.407-1.63,0.408-2.444c0,0-4.278-3.667-5.5-6.111c-1.223-2.443-1.223-5.906-0.407-7.739
      C181.384,156.178,189.327,151.086,192.179,148.846z"/>
    <path fill="#010101" d="M197.272,347.033l-0.611,5.093c0,0-1.833,2.24-15.48,2.037c-13.851-0.204-17.517-4.481-18.739-6.722
      l-0.814-5.296c0,0,2.648-3.87,3.259-3.87c4.481,0.407,19.758,6.518,30.35,8.147C196.253,346.422,196.456,346.829,197.272,347.033z
      "/>
    <path fill="#010101" d="M226.806,336.645c0,2.24-0.204,2.24-0.204,4.481c2.444,1.833,8.556,2.852,20.165,2.647
      c16.906-0.407,32.59,5.093,51.736,1.833l0.204-3.666l-1.833-0.203l-67.828-5.5L226.806,336.645z"/>
    <path fill="#010101" d="M241.675,343.774c1.63,0,3.259,0,5.092,0c11-0.407,21.388,2.037,32.59,2.648
      c5.907-0.204,13.24-1.63,12.629-5.907l-57.847-4.889C230.676,339.496,233.323,342.755,241.675,343.774z"/>
    <path fill="#010101" d="M175.273,258.022c1.833,1.222,14.258,8.555,34.423,7.536c-0.408,3.87-0.204,11.407-9.166,24.646
      c-4.481,6.518-8.352,17.925-9.166,32.387c0.204,3.259,2.037,6.11-0.407,10.388c0.814,2.647,4.073,7.943,5.703,11.202
      c1.629,3.26,2.444,6.926-8.352,7.13c-10.999,0.203-28.72-1.019-26.275-9.573c1.223-4.481,4.685-9.166,5.093-11
      c0.407-1.833,0.407-7.332,3.869-10.999c3.056-10.184,2.037-19.961,1.427-29.127C171.403,281.038,171.199,265.762,175.273,258.022z
      "/>
    <path fill="#010101" d="M194.216,92.017c14.462-19.351,2.24-34.83-20.979-30.146c-9.37,1.833-18.739,8.352-19.351,20.165
      c-3.055,0.407-9.98,0.814-13.443,13.443c-2.647,9.777-4.073,11.61-8.759,16.498c-3.055,3.463,0.204,10.592,2.444,15.685
      c7.537,17.517,30.757,19.146,46.441,32.386c5.296-1.426,10.795-7.332,12.425-11.202c-13.24-15.685-10.389-21.795-15.685-29.942
      C183.013,116.866,196.049,108.923,194.216,92.017z"/>
    <path fill="#F0EFEF" d="M191.364,90.795c0.814-1.223,2.24-3.87,2.852-4.889c0.204-0.204,2.444,3.666,2.648,3.463
      c5.499-8.963,6.925-21.999,0.61-23.221c-1.426-0.204-4.073-0.814-6.314-1.63c-4.073-1.426-7.739-1.426-14.258-0.203
      c-8.962,1.629-17.924,8.147-17.924,17.517c0,0.611,6.313,2.444,8.147,9.981c-3.056-4.278-8.352-8.963-14.666-4.889
      c-6.722,4.277-3.259,14.054-12.221,24.238c-3.056,3.463-2.648,7.537,0.61,15.684c5.296,12.833,30.35,19.758,43.997,31.979
      c3.259-1.426,5.499-4.685,7.129-7.129c-9.166-9.573-12.833-18.536-15.48-25.054c-3.259-7.536-6.926-11.813-14.055-17.518
      c3.667,1.426,6.519,2.852,8.147,4.074c1.833,1.222,4.481,1.426,6.926,0.611C186.272,110.756,190.957,98.534,191.364,90.795z"/>
    <path fill="#010101" d="M279.968,94.054c-0.611,7.74-6.314,3.87-9.369,2.444c-6.111-2.648-12.222-4.481-19.351-4.481
      c-7.129,0-16.295,0.611-24.238,2.648c-10.999,3.055-14.259,2.852-19.147,0.407c-4.888-2.648-13.442-9.166-13.442-9.166
      s-0.204,2.037,1.833,4.685c2.647,3.259,8.555,7.333,16.498,9.98c3.87,1.223,6.926,0.407,10.389-0.407
      c18.128-4.481,37.274-5.296,53.365,4.481c0.815,0.407,3.667-0.815,4.889-2.648C283.023,99.35,279.968,94.054,279.968,94.054z"/>
    <path fill="#0A1825" d="M187.291,171.658c1.629,1.019,3.666,1.63,5.906,3.463c0,0-1.833,0-2.647-0.814
      C189.531,173.696,187.494,171.863,187.291,171.658L187.291,171.658z"/>
    <path fill="#F0EFEF" d="M246.156,10.135c-0.611-1.833-5.093-5.093-15.48-5.093c-11.203,0-14.462,3.463-14.665,5.296
      c0,0.611-0.815,7.13-1.019,9.777c0,0,0,3.259,0.203,8.147c0.204,3.259,1.019,5.092,1.426,9.37c0.407,4.48,1.63,7.332,3.87,10.999
      c1.019,0.61,1.833,1.222,2.852,1.426c4.074,0.814,11.203,1.018,15.073,0c2.24-0.611,5.092-4.481,5.703-7.944
      c0.814-4.277,1.629-7.333,1.833-9.98c0.407-2.647,0.611-8.555,0.814-10.185C247.378,17.468,246.359,10.542,246.156,10.135z"/>
    <path fill="#010101" d="M224.769,261.892c0,0,10.796,4.685,37.479,0.611c0,0-7.536,37.886-4.073,56.828
      c0,0,3.462,4.889,29.127,14.258c0,0,11.406,2.852,10.999,8.556c0,0,0.407,1.222-13.443,0.814s-26.887-2.852-36.053-2.852
      c-9.166,0-18.943,0.407-20.572-2.24c-1.833-2.444,0.407-8.759,3.055-12.426c2.853-3.869,2.037-6.722,1.834-13.646
      C232.509,293.667,218.658,274.928,224.769,261.892z"/>
    <path fill="#8AC640" d="M222.528,265.355c-1.426,2.037,0.203,9.776,2.24,17.313c2.037,7.536,6.519,12.018,7.537,24.442
      c1.018,12.221,1.222,13.851-2.241,20.979s-4.481,13.647,7.536,13.851s18.536-0.204,30.757,1.63
      c12.222,1.833,16.499,2.444,23.221,1.426s8.147-3.26,5.296-5.296c-2.852-2.037-14.666-4.277-19.758-8.352
      c-4.889-3.666-18.739-9.777-18.942-11.406c-0.611-5.5-0.815-25.461,0.203-31.979c1.019-6.519,2.444-15.888,2.852-18.332
      s2.444-4.889-1.019-4.074c-3.462,0.814-16.498,2.648-26.275,2.037C224.158,266.984,223.14,264.743,222.528,265.355z"/>
    <path opacity="0.3" fill="#010101" enable-background="new    " d="M229.454,328.294c3.462,1.629,8.555,2.852,12.425,2.852
      c0,0-1.427,6.722,0.814,10.795c2.24,4.074-16.295,1.63-16.295,1.63l-0.814-14.462L229.454,328.294z"/>
    <path opacity="0.3" fill="#010101" enable-background="new    " d="M283.431,345.811c3.259-1.019,5.5-4.685,2.852-8.147
      c-2.852-3.463-5.296-4.074-1.63-4.277c3.667-0.204,17.11,7.943,17.11,7.943l-6.926,6.314L283.431,345.811z"/>
    <path opacity="0.3" fill="#010101" enable-background="new    " d="M221.917,273.298c4.685,1.63,11.814,2.037,17.925,1.833
      c6.11-0.203,15.276-1.019,21.184-3.055c5.906-2.037,3.462,2.24,3.462,2.24l-3.259,3.056c0,0-7.74,3.055-20.368,2.852
      c-14.869-0.204-19.351-1.833-19.351-1.833L221.917,273.298z"/>
    <path opacity="0.3" fill="#010101" enable-background="new    " d="M222.324,283.483c4.686,1.63,11.814,2.037,17.925,1.833
      c6.11-0.203,14.258-0.203,20.165-2.444c2.444-0.814,1.019,2.648,1.019,2.648l-1.019,1.833c0,0-7.944,2.852-20.369,2.647
      c-14.869-0.203-17.517-1.426-17.517-1.426L222.324,283.483z"/>
    <path fill="#010101" fill-opacity="0" d="M224.769,261.892c0,0,17.721,6.314,37.683,2.037c0,0-7.74,36.46-4.277,55.199
      c0,0,3.462,4.888,29.127,14.258c0,0,11.406,2.852,10.999,8.555c0,0,0.407,1.223-13.443,0.814
      c-13.851-0.407-26.887-2.852-36.053-2.852c-9.166,0-18.943,0.408-20.572-2.24c-1.833-2.444,0.407-8.759,3.055-12.425
      c2.853-3.87,2.037-6.722,1.834-13.647C232.509,293.667,218.658,274.928,224.769,261.892z"/>
    <path fill="#010101" fill-opacity="0" d="M224.769,261.892c0,0,17.721,6.11,37.683,1.833c0,0-7.74,36.664-4.277,55.403
      c0,0,3.462,4.888,29.127,14.258c0,0,11.406,2.852,10.999,8.555c0,0,0.407,1.223-13.443,0.814
      c-13.851-0.407-27.091-4.277-36.053-2.852c-9.573,1.63-18.943,1.019-20.572-2.24c-1.426-2.647,0.407-8.759,3.055-12.425
      c2.853-3.87,2.037-6.722,1.834-13.647C232.509,293.667,218.658,274.928,224.769,261.892z"/>
    <path fill="#010101" d="M208.881,140.699c0,1.426,15.888,9.369,24.646,10.999c8.759,1.629,27.091,0,29.942-0.611l-0.408,2.852
      c0,0-21.794,3.259-38.496-1.222c-16.703-4.481-14.869-5.5-14.869-5.5L208.881,140.699z"/>
    <g>
      <path fill="#F0EFEF" d="M174.865,314.443c2.444,1.223,11.203,3.463,16.906,2.241c0.814-0.204,0-14.055,2.241-20.369
        c3.259-8.759,8.555-15.888,10.998-31.367c-8.555-0.815-18.331-3.056-23.424-4.686
        C175.069,280.224,177.31,297.333,174.865,314.443z"/>
      <path fill="#F0EFEF" d="M188.513,327.276c1.426,0.407,2.444,2.036,2.852,1.019c0.814-1.834-1.426-5.296-1.63-7.74
        c0-0.204,0,0,0-0.204c-1.833-1.629-14.258-1.833-13.443-1.019c-1.426,2.648-3.666,2.241-4.48,7.537
        c-0.407,2.647,2.852,0.407,5.906,0.203c-5.499,3.666-11.813,8.352-12.832,12.425c-1.222,5.703,0.815,7.333,6.926,10.389
        c5.296,1.222,11.61,1.426,16.498,1.222c5.5-1.019,6.519-3.666,4.889-7.333C190.753,338.275,189.124,331.146,188.513,327.276z"/>
    </g>
    <path fill="#010101" d="M190.753,62.686c6.722,3.87,16.092,2.852,19.554,2.648c0.815,0,8.963-1.426,9.37-1.223
      c0.814,0.204,0.814,0.815,0.814,0.815s-3.055,1.629-9.98,2.036c-6.518,0.407-14.258,0-18.535-2.036
      C186.883,62.686,190.753,62.686,190.753,62.686z"/>
    <path fill="#010101" d="M260.007,66.556c1.222,0.814,9.166,3.87,12.629,7.536c3.055,3.26,1.426,3.056,0.814,2.241
      c-0.814-1.019-7.129-5.296-9.573-6.314s-5.5-2.852-5.5-3.259S260.007,66.556,260.007,66.556z"/>
    <path fill="#F0EFEF" d="M189.734,151.086c5.907-0.407,12.018,1.019,15.888,5.092c2.037,2.037,5.296,4.277,4.889,6.314
      c0,0.611-1.223,2.241-2.24,3.463c-0.611,0.814-2.444,2.647-3.056,3.259c-0.814,0.611-3.666,2.852-4.277,3.259
      c-0.611,0.408-1.426,1.427-2.037,1.63c-2.036,1.019-4.277,0.204-6.314-0.814c-2.036-1.019,0.408-1.223-1.833-2.852
      c-5.499-3.87-8.555-6.519-6.314-14.055C184.643,154.956,186.883,153.326,189.734,151.086z"/>
  </g>
  <path opacity="0.4" fill="#010101" enable-background="new    " d="M137.795,104.442c-18.332,7.333-64.977,30.554-78.216,37.683
    l0,0c10.999,6.925,16.091,23.627,17.721,40.533c0.203,1.63,0.407,3.056,0.611,4.685c0.203,1.426,0.407,2.444,0.61,3.056
    c0,0.204,0,0.611,0.204,0.814c12.018-32.793,54.995-67.42,56.625-70.068c0.814-1.222-1.019-6.518,1.833-11.609
    C140.85,103.016,147.98,100.164,137.795,104.442z"/>
  <path opacity="0.4" fill="#010101" enable-background="new    " d="M181.384,258.226c9.369-18.739,9.573-36.664,9.369-57.644
    c0-8.759,6.314-21.184,3.056-17.721c-12.222,13.646-42.978,39.312-65.18,40.737C159.793,222.58,172.014,238.264,181.384,258.226z"
    />
  <path fill="#010101" d="M41.654,159.437c11.61-8.351,71.698-40.329,86.16-44.811c14.461-4.685,9.98-10.185,9.98-10.185
    s-58.662,25.257-93.696,47.052"/>
  <path opacity="0.4" fill="#010101" enable-background="new    " d="M212.751,100.572c-4.685-1.833-8.351,3.667-7.129,8.963
    c1.223,5.296,12.222,11.202,11.61,30.553c-0.407,15.888-3.87,22.405-3.87,22.405l-7.74-9.776c0,0-1.222-21.999-3.87-25.258
    c-2.647-3.259-10.999-9.166-14.258-12.221c-3.259-3.056,3.666-7.129,3.259-12.833c-0.407-5.499,3.463-16.498,3.463-16.498
    L212.751,100.572z"/>
  <path opacity="0.4" fill="#010101" enable-background="new    " d="M241.064,187.342c-0.407,15.276,3.056,37.886,4.481,48.682
    c1.426,10.795,3.259,11.61,0,16.499c-3.259,4.685-7.536,12.425-7.536,12.425l-14.055-1.223c0,0,11.203-14.258,11.813-16.906
    c0.611-2.647-5.703-22.812-5.703-22.812L241.064,187.342z"/>
  <path opacity="0.4" fill="#010101" enable-background="new    " d="M213.974,44.762c2.852,6.313,6.314,9.165,11.813,10.999
    c3.259,1.222,16.091,2.852,21.184-2.852c2.24-2.648,0.814-9.777,0.814-9.777l-11.61,9.369l-15.684-2.851l-1.833-4.685
    L213.974,44.762z"/>
  <path fill="#8AC640" stroke="#010101" stroke-width="1.586" stroke-linejoin="round" stroke-miterlimit="10" d="M215.195,58.816
    c5.296,3.463,18.536,6.722,22.202,7.333c3.666,0.814,9.573-3.87,12.425-5.092c3.056-1.426,8.352-2.241,14.462,3.259
    c0.611,0.611-1.426,3.259-1.426,3.259c-0.204-0.204-1.426-0.204-3.056-1.019c-1.629-0.814-3.055-1.426-5.499-1.222
    c-10.185,1.222-11.814,4.685-20.776,2.647s-11.203-3.666-19.961-3.259"/>
  <path fill="#8AC640" d="M213.362,59.427c6.722,2.852,19.758,5.907,23.424,6.722s9.573-2.852,12.425-4.685
    c5.093-3.259,11.61-0.611,14.666,2.852c2.036,2.24,2.852,3.666,2.852,4.277c0,0.814-2.444,0-2.444,0
    c-1.426-0.611-3.056-0.814-4.277-1.63c-1.63-0.814-3.26-2.036-5.703-1.833c-10.185,1.223-12.222,4.685-20.98,2.648
    s-10.999-3.87-20.368-3.26"/>
  <path fill="#010101" d="M181.791,249.67c-0.407-0.407,0.407-0.814,0-0.814c-2.647,0-6.314-2.037-8.352-4.889
    c-8.758-12.628-21.591-20.979-44.811-20.368c-34.831,0.814-48.682-13.443-51.329-40.737c-1.426-14.869-5.5-29.331-13.851-37.479
    l-4.889,3.056c9.369,8.147,12.425,21.387,14.462,39.515c3.259,27.294,25.257,39.923,50.922,40.33
    c26.683,0.407,36.256,5.907,46.236,19.351c3.259,4.277,6.926,5.703,9.777,6.314L181.791,249.67z"/>
  <path opacity="0.4" fill="#010101" enable-background="new    " d="M276.302,118.7c0.611,3.055,2.24,8.962,5.499,11.813
    c1.427,1.426,1.63,1.833,0.408,1.833c-1.223,0-10.185-0.407-10.185-0.407l-2.444-4.277L276.302,118.7z"/>
</g>
</symbol>
<symbol id="arrow-straight" xmlns="http://www.w3.org/2000/svg"
   viewBox="0 0 100 100" style="enable-background:new 0 0 100 100;" xml:space="preserve">
<path d="M66.5,35c-0.6,1.2-0.3,2.1,0.9,2.7c2.7,1.5,8.2,4.8,16.3,9.9c-8.9-0.3-20.2-0.3-33.7,0.1c-23.5,0.8-37.1,1.2-40.8,1.2
  c-1.4,0-2,0.7-2,2c0,1.4,0.7,2,2,2c3.8,0,17.4-0.4,40.8-1.2c14-0.3,25.6-0.4,34.6-0.1l-5,3.4c-4.4,2.7-7.7,5.1-9.9,7.3
  c-1,1.1-1.1,2.1-0.1,3.1c1,1,1.9,1,2.8,0.1c2.1-2.1,5.3-4.5,9.5-7c4.5-3,7.6-5.1,9.3-6.4c1.1-0.3,1.6-0.9,1.6-1.8l0-0.4
  c0-0.5-0.2-0.8-0.5-1.1c-0.2-0.5-0.4-0.8-0.7-1.1c-1.5-0.8-4.9-2.8-10.1-6.1c-5.2-3.3-9.3-5.8-12.4-7.5C68,33.4,67.1,33.7,66.5,35z"
  />
</symbol>
<symbol id="mysql" viewBox="0 0 256 252" version="1.1" xmlns="http://www.w3.org/2000/svg" preserveAspectRatio="xMidYMid">
    <path d="M235.648276,194.211632 C221.729851,193.864559 210.942872,195.257272 201.895604,199.083964 C199.285899,200.127406 195.109927,200.128498 194.761767,203.433458 C196.154498,204.826189 196.328034,207.087716 197.546096,209.001055 C199.635192,212.479551 203.287247,217.178343 206.593317,219.614507 C210.246461,222.397748 213.900691,225.180989 217.727416,227.617153 C224.513092,231.793125 232.168625,234.22817 238.779677,238.404123 C242.608577,240.838067 246.434123,243.971711 250.261934,246.581411 C252.176407,247.971926 253.393381,250.234545 255.829549,251.104446 L255.829549,250.582732 C254.611442,249.016479 254.263282,246.754952 253.046308,245.015144 C251.307592,243.275341 249.566702,241.709083 247.826899,239.96928 C242.781025,233.1847 236.518133,227.268984 229.732547,222.397748 C224.166065,218.56995 211.986355,213.35055 209.724764,206.913051 C209.724764,206.913051 209.55014,206.73951 209.376604,206.56597 C213.204371,206.217787 217.727416,204.82618 221.381691,203.781623 C227.297466,202.215374 232.690457,202.563548 238.779677,200.998382 C241.562919,200.30203 244.347292,199.432129 247.130533,198.562222 L247.130533,196.997075 C244.00022,193.864532 241.737588,189.689684 238.431517,186.731778 C229.558965,179.075113 219.815379,171.595269 209.724764,165.332394 C204.330685,161.852792 197.371472,159.590151 191.630412,156.633369 C189.543536,155.587729 186.062797,155.06712 184.845823,153.327299 C181.713302,149.499523 179.973499,144.45476 177.711982,139.930579 C172.668329,130.360605 167.794863,119.749306 163.44541,109.658665 C160.315096,102.872993 158.400651,96.0872892 154.572862,89.8245233 C136.653166,60.2479054 117.167095,42.3281102 87.242308,24.7554574 C80.8048232,21.1023052 73.1503779,19.5360541 64.9730628,17.6227124 C60.6246649,17.4480683 56.2740469,17.1009966 51.9245072,16.9263525 C49.1412661,15.7082579 46.3569195,12.4033092 43.9207465,10.8370441 C34.0058755,4.5730961 8.42942301,-8.99607108 1.1220548,8.92370237 C-3.57563582,20.2324516 8.08126754,31.366477 12.0825475,37.1086812 C15.041536,41.1100178 18.8682195,45.6330512 20.9562053,50.1572463 C22.1742941,53.1129226 22.5213621,56.2465484 23.7394509,59.3779766 C26.523793,67.031339 29.1323922,75.5578744 32.7866404,82.691806 C34.7010855,86.3449577 36.7879657,90.1727422 39.2241297,93.477666 C40.6157457,95.3910055 43.0508086,96.2620126 43.5736286,99.3934363 C41.1385747,102.873029 40.9639284,108.092452 39.5711977,112.441992 C33.3083548,132.101492 35.7445143,156.4588 44.617071,170.89889 C47.4003121,175.247297 54.0124069,184.818421 62.8850316,181.164182 C70.7141415,178.032744 68.9743337,168.115626 71.2358604,159.41661 C71.7586894,157.327523 71.4105022,155.937017 72.4539446,154.545383 C72.4548508,154.718924 72.4539446,154.893561 72.4539446,154.893561 C74.8901041,159.764788 77.3251715,164.46251 79.5866891,169.333656 C84.980736,177.858025 94.3750434,186.731674 102.204103,192.647503 C106.381181,195.777808 109.686136,201.171877 114.905523,203.086313 L114.905523,202.563484 L114.557345,202.563484 C113.512801,200.997231 111.947645,200.301958 110.55602,199.083892 C107.424591,195.952463 103.943884,192.124665 101.50883,188.645081 C94.2025447,178.901486 87.7639408,168.115635 82.0228486,156.980496 C79.2396075,151.587555 76.8034481,145.671734 74.5419214,140.278811 C73.497378,138.189729 73.497378,135.059406 71.7575748,134.015973 C69.1478745,137.842647 65.3211911,141.148717 63.4067461,145.846417 C60.1028916,153.327344 59.7536034,162.548097 58.5355192,172.116947 C57.8402503,172.291598 58.187332,172.116947 57.8391493,172.465138 C52.2726627,171.072408 50.3582176,165.332394 48.2701955,160.460052 C43.0507905,148.107926 42.1808935,128.273684 46.7050387,114.008236 C47.923123,110.353988 53.142528,98.8717128 51.0545422,95.3921019 C50.0110998,92.0860273 46.5303924,90.1726969 44.6170529,87.5629967 C42.3555262,84.2569266 39.9193668,80.082065 38.35421,76.4278576 C34.1782383,66.6853811 32.0902615,55.898411 27.5672354,46.1548154 C25.4792496,41.6306665 21.8261069,36.9340837 18.8682195,32.7592063 C15.563264,28.0615284 11.9090067,24.7554574 9.29927023,19.1878506 C8.43046966,17.2745089 7.21128439,14.1430915 8.60290945,12.0550966 C8.95109211,10.6634847 9.64634733,10.1417599 11.0390689,9.79357497 C13.3005955,7.87912949 19.7380848,10.3152907 21.9995616,11.3587363 C28.4370509,13.9673251 33.8300058,16.4046087 39.2240527,20.0577513 C41.6591111,21.7975523 44.2688113,25.1036232 47.4002396,25.9735239 L51.0544833,25.9735239 C56.6220709,27.1905053 62.8849274,26.3216898 68.1043279,27.8868652 C77.3261638,30.843648 85.6758644,35.1942543 93.1579696,39.8919512 C115.95003,54.332049 134.738553,74.8626147 147.440063,99.3934454 C149.528049,103.39367 150.396845,107.04901 152.31129,111.22389 C155.965538,119.749365 160.488578,128.448376 164.14173,136.799218 C167.794872,144.975401 171.274474,153.327362 176.493861,160.113048 C179.104667,163.765094 189.542403,165.67953 194.240026,167.593975 C197.719632,169.159141 203.113711,170.551871 206.245112,172.465206 C212.159801,176.117243 218.075576,180.29433 223.643145,184.295646 C226.427474,186.382535 235.125402,190.733144 235.648231,194.21165 L235.648276,194.211632 L235.648276,194.211632 Z" fill="#00546B"></path>
    <path d="M58.1864892,43.0222644 C55.2286063,43.0222644 53.1417305,43.3715526 51.0537447,43.8932806 C51.0537447,43.8923744 51.0537447,44.0679225 51.0537447,44.2414633 L51.4019319,44.2414633 C52.794658,47.0247034 55.2286154,48.9391485 56.968414,51.3741978 C58.3611446,54.1574389 59.5781143,56.9417945 60.9708449,59.7261412 C61.1443766,59.5514948 61.3179175,59.3779585 61.3179175,59.3779585 C63.7551915,57.6370498 64.9721657,54.8538087 64.9721657,50.6789426 C63.9276177,49.4608583 63.7540769,48.2427786 62.8841798,47.0246944 C61.8407374,45.283782 59.5781052,44.414995 58.1864892,43.0222644 L58.1864892,43.0222644 L58.1864892,43.0222644 Z" fill="#00546B"></path>
</symbol>
<symbol id="rails" viewBox="0 0 512 180" version="1.1" xmlns="http://www.w3.org/2000/svg" xmlns:xlink="http://www.w3.org/1999/xlink" preserveAspectRatio="xMidYMid">
  <g fill="#CC0000">
    <path d="M219.115365,150.633753 C219.115365,150.633753 241.684635,148.699244 241.684635,119.552645 C241.684635,90.4060453 214.343577,87.697733 214.343577,87.697733 L165.078086,87.697733 L165.078086,179.651385 L189.839798,179.651385 L189.839798,157.469018 L211.248363,179.651385 L247.875063,179.651385 L219.115365,150.633753 Z M209.571788,131.804534 L189.839798,131.804534 L189.839798,110.782872 L209.700756,110.782872 C209.700756,110.782872 215.246348,112.846348 215.246348,121.229219 C215.246348,129.612091 209.571788,131.804534 209.571788,131.804534 Z M302.815113,88.3425693 L277.666499,88.3425693 C259.74005,88.3425693 253.678589,104.592443 253.678589,112.330479 L253.678589,179.651385 L278.827204,179.651385 L278.827204,163.530479 L302.428212,163.530479 L302.428212,179.651385 L326.803023,179.651385 L326.803023,112.330479 C326.803023,92.7274559 309.005542,88.3425693 302.815113,88.3425693 Z M302.428212,137.479093 L278.698237,137.479093 L278.698237,115.167758 C278.698237,115.167758 278.698237,110.138035 286.565239,110.138035 L295.206045,110.138035 C302.170277,110.138035 302.299244,115.167758 302.299244,115.167758 L302.299244,137.479093 L302.428212,137.479093 Z M338.281108,88.3425693 L364.461461,88.3425693 L364.461461,179.651385 L338.281108,179.651385 L338.281108,88.3425693 Z M401.217128,156.050378 L401.217128,88.3425693 L375.165743,88.3425693 L375.165743,156.050378 L375.165743,179.651385 L401.217128,179.651385 L436.425189,179.651385 L436.425189,156.050378 L401.217128,156.050378 Z M445.065995,156.308312 L445.065995,179.651385 L487.238287,179.651385 C495.879093,179.651385 510.710327,173.33199 511.226196,155.663476 L511.226196,146.635768 C511.226196,131.546599 498.84534,122.647859 487.238287,122.647859 L466.216625,122.647859 L466.216625,111.81461 L507.873048,111.81461 L507.873048,88.3425693 L467.893199,88.3425693 C457.575819,88.3425693 443.776322,96.8544081 443.776322,112.71738 L443.776322,120.842317 C443.776322,136.70529 457.446851,144.830227 467.893199,144.830227 C496.910831,144.959194 460.928967,144.830227 487.754156,144.830227 L487.754156,156.179345 L445.065995,156.308312 Z"></path>
    <path d="M9.02770781,179.522418 L110.911839,179.522418 C110.911839,179.522418 91.4377834,90.6639798 155.921411,54.6821159 C169.978841,47.8468514 214.730479,22.311335 287.983879,76.4775819 C290.30529,74.543073 292.497733,72.995466 292.497733,72.995466 C292.497733,72.995466 225.434761,6.06146096 150.76272,13.5415617 C113.233249,16.8947103 67.0629723,51.0710327 39.9798489,96.2095718 C12.8967254,141.348111 9.02770781,179.522418 9.02770781,179.522418 Z M221.307809,20.763728 L221.823678,12.1229219 C220.662972,11.4780856 217.438791,9.93047859 209.313854,7.60906801 L208.797985,16.1209068 C213.053904,17.5395466 217.180856,19.0871537 221.307809,20.763728 Z M209.055919,48.1047859 L208.54005,56.2297229 C212.79597,56.3586902 217.051889,56.8745592 221.307809,57.77733 L221.823678,49.7813602 C217.438791,48.8785894 213.182872,48.3627204 209.055919,48.1047859 Z M161.338035,7.86700252 L162.627708,7.86700252 L160.048363,-7.10542736e-15 C156.050378,-7.10542736e-15 151.923426,0.257934509 147.667506,0.773803526 L150.117884,8.38287154 C153.857935,7.99596977 157.597985,7.86700252 161.338035,7.86700252 Z M167.528463,55.3269521 L170.49471,64.2256927 C174.234761,62.4201511 177.974811,60.8725441 181.714861,59.7118388 L178.877582,51.2 C174.492695,52.4896725 170.752645,53.9083123 167.528463,55.3269521 Z M108.97733,21.4085642 L103.173804,12.5098237 C99.9496222,14.186398 96.5964736,15.9919395 93.1143577,18.0554156 L99.0468514,27.0831234 C102.4,25.0196474 105.624181,23.0851385 108.97733,21.4085642 Z M135.415617,79.4438287 L141.606045,88.729471 C143.798489,85.5052897 146.377834,82.5390428 149.215113,79.572796 L143.411587,70.8030227 C140.44534,73.511335 137.737028,76.4775819 135.415617,79.4438287 Z M116.715365,120.971285 L127.161713,129.225189 C127.677582,124.195466 128.580353,119.165743 129.870025,114.13602 L120.584383,106.784887 C118.907809,111.556675 117.747103,116.328463 116.715365,120.971285 Z M60.2277078,59.7118388 L51.0710327,51.715869 C47.7178841,54.9400504 44.4937028,58.1642317 41.5274559,61.3884131 L51.4579345,69.9002519 C54.1662469,66.418136 57.1324937,62.9360202 60.2277078,59.7118388 Z M21.279597,117.360202 L6.44836272,111.943577 C3.99798489,117.489169 1.28967254,123.937531 0,127.419647 L14.8312343,132.836272 C16.5078086,128.451385 19.2161209,122.13199 21.279597,117.360202 Z M114.780856,153.728967 C115.038791,160.564232 115.683627,166.109824 116.328463,169.978841 L131.804534,175.524433 C130.643829,170.49471 129.483123,164.820151 128.70932,158.75869 L114.780856,153.728967 Z"></path>
  </g>
</symbol>
<symbol id="gatsby" viewBox="0 0 256 256" version="1.1" xmlns="http://www.w3.org/2000/svg" xmlns:xlink="http://www.w3.org/1999/xlink" preserveAspectRatio="xMidYMid">
    <g>
    <path d="M128,0 C57.3075981,0 0,57.307374 0,128 C0,198.69285 57.3078221,256 128,256 C198.69285,256 256,198.692626 256,128 C256,57.307374 198.69285,0 128,0 Z M27.503973,129.334313 L126.665463,228.496027 C72.2144512,227.786305 28.2134711,183.785325 27.503973,129.334313 Z M150.496265,225.983324 L30.0166761,105.503735 C40.2328216,60.8232766 80.2223482,27.4871709 128,27.4871709 C161.397489,27.4871709 190.984927,43.7800881 209.262736,68.8464075 L195.346089,81.125855 C180.519662,59.8637627 155.886614,45.9486835 128,45.9486835 C92.4948508,45.9486835 62.259523,68.5011796 50.8311596,100.061636 L155.938588,205.169064 C181.463942,195.925651 201.095107,174.378594 207.669894,147.692325 L164.102633,147.692325 L164.102633,128.000224 L210.051317,128.000224 L210.051317,127.999776 L228.512829,127.999776 L228.512829,128 C228.512829,175.777652 195.176947,215.767178 150.496265,225.983324 Z" fill="#744C9E" fill-rule="nonzero"></path>
    </g>
</symbol>
<symbol id="vue" viewBox="0 0 256 221" version="1.1" xmlns="http://www.w3.org/2000/svg" xmlns:xlink="http://www.w3.org/1999/xlink" preserveAspectRatio="xMidYMid">
  <g>
    <path d="M204.8,0 L256,0 L128,220.8 L0,0 L50.56,0 L97.92,0 L128,51.2 L157.44,0 L204.8,0 Z" fill="#41B883"></path>
    <path d="M0,0 L128,220.8 L256,0 L204.8,0 L128,132.48 L50.56,0 L0,0 Z" fill="#41B883"></path>
    <path d="M50.56,0 L128,133.12 L204.8,0 L157.44,0 L128,51.2 L97.92,0 L50.56,0 Z" fill="#35495E"></path>
  </g>
</symbol>
</svg>
